Genre:Comedy | Family
Language:English
IMDb:http://www.imdb.com/title/tt1392197/
Source.Imagine.Thanks
Encoder: Tony2
..........................................
General
Complete name : Marmaduke CAM V2 MP4 FEEL-FREE
Format : MPEG-4
Format profile : Base Media
Codec ID : isom
File size : 569 MiB
Duration : 1h 23mn
Overall bit rate : 958 Kbps
...........................................
Video
ID : 1
Format : AVC
Format/Info : Advanced Video Codec
Format profile : Main@L1.3
Format settings, CABAC : Yes
Format settings, ReFrames : 1 frame
Codec ID : avc1
Codec ID/Info : Advanced Video Coding
Duration : 1h 23mn
Bit rate mode : Variable
Bit rate : 825 Kbps
Width : 720 pixels
Height : 304 pixels
Display aspect ratio : 2.35:1
Frame rate mode : Constant
Frame rate : 29.970 fps
Resolution : 24 bits
Colorimetry : 4:2:0
Scan type : Progressive
Bits/(Pixel*Frame) : 0.126
Stream size : 490 MiB (86%)
............................................
Audio
ID : 2
Format : AAC
Format/Info : Advanced Audio Codec
Format version : Version 4
Format profile : LC
Format settings, SBR : No
Codec ID : 40
Duration : 1h 23mn
Bit rate mode : Variable
Bit rate : 128 Kbps
Channel(s) : 2 channels
Channel positions : L R
Sampling rate : 44.1 KHz
Resolution : 16 bits
Stream size : 75.9 MiB (13%)
.............................................
Plot:
A suburban family moves to a new neighborhood with their large yet lovable Great Dane, who has a tendency to wreak havoc in his own oblivious way
...................................................
Screens:
 
http://postimg.com/image/18000/17114.jpg
.........................................................